<mxfile host="app.diagrams.net" modified="2024-02-10T22:23:31.513Z" agent="Mozilla/5.0 (Macintosh; Intel Mac OS X 10_15_7) AppleWebKit/537.36 (KHTML, like Gecko) Chrome/116.0.0.0 Safari/537.36" etag="2I5iBIt1n8girDs-Ioz3" version="23.0.1" type="github">
  <diagram name="Page-1" id="kw73sMLuFBZzSXrxka9F">
    <mxGraphModel dx="1591" dy="1071" grid="1" gridSize="10" guides="1" tooltips="1" connect="1" arrows="1" fold="1" page="1" pageScale="1" pageWidth="827" pageHeight="1169" math="0" shadow="0">
      <root>
        <mxCell id="0" />
        <mxCell id="1" parent="0" />
        <mxCell id="LD-EiIfS64pIhnvLD3iC-20" value="" style="shape=actor;whiteSpace=wrap;html=1;fillColor=#ffe6cc;strokeColor=#d79b00;" vertex="1" parent="1">
          <mxGeometry x="40" y="240" width="40" height="60" as="geometry" />
        </mxCell>
        <mxCell id="LD-EiIfS64pIhnvLD3iC-21" value="&lt;b&gt;Client&lt;/b&gt;" style="text;html=1;align=center;verticalAlign=middle;resizable=0;points=[];autosize=1;strokeColor=none;fillColor=none;" vertex="1" parent="1">
          <mxGeometry x="30" y="198" width="60" height="30" as="geometry" />
        </mxCell>
        <mxCell id="LD-EiIfS64pIhnvLD3iC-37" value="" style="group" vertex="1" connectable="0" parent="1">
          <mxGeometry x="180" y="260" width="110" height="73" as="geometry" />
        </mxCell>
        <mxCell id="LD-EiIfS64pIhnvLD3iC-35" value="" style="fontColor=#0066CC;verticalAlign=top;verticalLabelPosition=bottom;labelPosition=center;align=center;html=1;outlineConnect=0;fillColor=#CCCCCC;strokeColor=#6881B3;gradientColor=none;gradientDirection=north;strokeWidth=2;shape=mxgraph.networks.load_balancer;" vertex="1" parent="LD-EiIfS64pIhnvLD3iC-37">
          <mxGeometry x="5" width="100" height="30" as="geometry" />
        </mxCell>
        <mxCell id="LD-EiIfS64pIhnvLD3iC-36" value="&lt;b&gt;Load Balancer&lt;/b&gt;" style="text;html=1;align=center;verticalAlign=middle;resizable=0;points=[];autosize=1;strokeColor=none;fillColor=none;" vertex="1" parent="LD-EiIfS64pIhnvLD3iC-37">
          <mxGeometry y="43" width="110" height="30" as="geometry" />
        </mxCell>
        <mxCell id="LD-EiIfS64pIhnvLD3iC-41" value="" style="verticalLabelPosition=bottom;verticalAlign=top;html=1;shape=mxgraph.basic.layered_rect;dx=10;outlineConnect=0;whiteSpace=wrap;fillColor=#d5e8d4;strokeColor=#82b366;" vertex="1" parent="1">
          <mxGeometry x="400" y="240" width="100" height="80" as="geometry" />
        </mxCell>
        <mxCell id="LD-EiIfS64pIhnvLD3iC-42" value="" style="endArrow=none;dashed=1;html=1;rounded=0;exitX=1;exitY=0.75;exitDx=0;exitDy=0;strokeWidth=2;fillColor=#60a917;strokeColor=#2D7600;" edge="1" parent="1">
          <mxGeometry width="50" height="50" relative="1" as="geometry">
            <mxPoint x="290" y="279.5" as="sourcePoint" />
            <mxPoint x="390" y="279.5" as="targetPoint" />
          </mxGeometry>
        </mxCell>
        <mxCell id="LD-EiIfS64pIhnvLD3iC-43" value="&lt;b&gt;FrontEnd Service&lt;/b&gt;" style="text;html=1;align=center;verticalAlign=middle;resizable=0;points=[];autosize=1;strokeColor=none;fillColor=none;" vertex="1" parent="1">
          <mxGeometry x="390" y="328" width="120" height="30" as="geometry" />
        </mxCell>
        <mxCell id="LD-EiIfS64pIhnvLD3iC-44" value="&lt;b&gt;Metadata Service&lt;/b&gt;" style="rounded=1;whiteSpace=wrap;html=1;fillColor=#dae8fc;strokeColor=#6c8ebf;" vertex="1" parent="1">
          <mxGeometry x="410" y="120" width="70" height="70" as="geometry" />
        </mxCell>
        <mxCell id="LD-EiIfS64pIhnvLD3iC-45" value="&lt;b&gt;Database&lt;/b&gt;" style="strokeWidth=2;html=1;shape=mxgraph.flowchart.database;whiteSpace=wrap;fillColor=#dae8fc;strokeColor=#6c8ebf;" vertex="1" parent="1">
          <mxGeometry x="415" y="20" width="60" height="60" as="geometry" />
        </mxCell>
        <mxCell id="LD-EiIfS64pIhnvLD3iC-46" value="" style="endArrow=none;dashed=1;html=1;rounded=0;exitX=0;exitY=0;exitDx=45;exitDy=0;exitPerimeter=0;entryX=0.5;entryY=1;entryDx=0;entryDy=0;strokeWidth=2;fillColor=#60a917;strokeColor=#2D7600;" edge="1" parent="1" source="LD-EiIfS64pIhnvLD3iC-41" target="LD-EiIfS64pIhnvLD3iC-44">
          <mxGeometry width="50" height="50" relative="1" as="geometry">
            <mxPoint x="390" y="240" as="sourcePoint" />
            <mxPoint x="440" y="190" as="targetPoint" />
          </mxGeometry>
        </mxCell>
        <mxCell id="LD-EiIfS64pIhnvLD3iC-47" value="" style="endArrow=none;dashed=1;html=1;dashPattern=1 3;strokeWidth=2;rounded=0;exitX=0.5;exitY=0;exitDx=0;exitDy=0;entryX=0.5;entryY=1;entryDx=0;entryDy=0;entryPerimeter=0;fillColor=#60a917;strokeColor=#2D7600;" edge="1" parent="1" source="LD-EiIfS64pIhnvLD3iC-44" target="LD-EiIfS64pIhnvLD3iC-45">
          <mxGeometry width="50" height="50" relative="1" as="geometry">
            <mxPoint x="390" y="240" as="sourcePoint" />
            <mxPoint x="440" y="190" as="targetPoint" />
          </mxGeometry>
        </mxCell>
        <mxCell id="LD-EiIfS64pIhnvLD3iC-48" value="&lt;b&gt;Temporary Storage&amp;nbsp;&lt;/b&gt;" style="rounded=1;whiteSpace=wrap;html=1;fillColor=#e3c800;strokeColor=#B09500;fontColor=#000000;" vertex="1" parent="1">
          <mxGeometry x="600" y="250" width="100" height="70" as="geometry" />
        </mxCell>
        <mxCell id="LD-EiIfS64pIhnvLD3iC-49" value="" style="endArrow=none;dashed=1;html=1;rounded=0;exitX=0;exitY=0;exitDx=100;exitDy=45;exitPerimeter=0;entryX=0;entryY=0.5;entryDx=0;entryDy=0;strokeWidth=2;fillColor=#008a00;strokeColor=#005700;" edge="1" parent="1" source="LD-EiIfS64pIhnvLD3iC-41" target="LD-EiIfS64pIhnvLD3iC-48">
          <mxGeometry width="50" height="50" relative="1" as="geometry">
            <mxPoint x="390" y="240" as="sourcePoint" />
            <mxPoint x="440" y="190" as="targetPoint" />
          </mxGeometry>
        </mxCell>
        <mxCell id="LD-EiIfS64pIhnvLD3iC-50" value="&lt;b&gt;Sender&lt;/b&gt;" style="rounded=1;whiteSpace=wrap;html=1;fillColor=#ffe6cc;strokeColor=#d79b00;" vertex="1" parent="1">
          <mxGeometry x="780" y="250" width="90" height="70" as="geometry" />
        </mxCell>
        <mxCell id="LD-EiIfS64pIhnvLD3iC-56" value="" style="endArrow=none;dashed=1;html=1;rounded=0;entryX=1;entryY=0.5;entryDx=0;entryDy=0;exitX=0;exitY=0.75;exitDx=0;exitDy=0;strokeWidth=2;fillColor=#008a00;strokeColor=#005700;" edge="1" parent="1" source="LD-EiIfS64pIhnvLD3iC-54" target="LD-EiIfS64pIhnvLD3iC-50">
          <mxGeometry width="50" height="50" relative="1" as="geometry">
            <mxPoint x="390" y="240" as="sourcePoint" />
            <mxPoint x="440" y="190" as="targetPoint" />
          </mxGeometry>
        </mxCell>
        <mxCell id="LD-EiIfS64pIhnvLD3iC-57" value="" style="endArrow=none;dashed=1;html=1;rounded=0;entryX=1;entryY=0.5;entryDx=0;entryDy=0;exitX=-0.1;exitY=0.617;exitDx=0;exitDy=0;strokeWidth=2;exitPerimeter=0;fillColor=#008a00;strokeColor=#005700;" edge="1" parent="1" source="LD-EiIfS64pIhnvLD3iC-55" target="LD-EiIfS64pIhnvLD3iC-50">
          <mxGeometry width="50" height="50" relative="1" as="geometry">
            <mxPoint x="980" y="223" as="sourcePoint" />
            <mxPoint x="880" y="295" as="targetPoint" />
          </mxGeometry>
        </mxCell>
        <mxCell id="LD-EiIfS64pIhnvLD3iC-59" value="" style="group" vertex="1" connectable="0" parent="1">
          <mxGeometry x="945" y="138" width="95" height="90" as="geometry" />
        </mxCell>
        <mxCell id="LD-EiIfS64pIhnvLD3iC-54" value="" style="shape=actor;whiteSpace=wrap;html=1;fillColor=#0050ef;strokeColor=#001DBC;fontColor=#ffffff;" vertex="1" parent="LD-EiIfS64pIhnvLD3iC-59">
          <mxGeometry x="25" y="30" width="40" height="60" as="geometry" />
        </mxCell>
        <mxCell id="LD-EiIfS64pIhnvLD3iC-58" value="&lt;b&gt;Subscriber A&lt;/b&gt;" style="text;html=1;align=center;verticalAlign=middle;resizable=0;points=[];autosize=1;strokeColor=none;fillColor=none;" vertex="1" parent="LD-EiIfS64pIhnvLD3iC-59">
          <mxGeometry x="-5" width="100" height="30" as="geometry" />
        </mxCell>
        <mxCell id="LD-EiIfS64pIhnvLD3iC-61" value="" style="group" vertex="1" connectable="0" parent="1">
          <mxGeometry x="945" y="320" width="95" height="98" as="geometry" />
        </mxCell>
        <mxCell id="LD-EiIfS64pIhnvLD3iC-55" value="" style="shape=actor;whiteSpace=wrap;html=1;fillColor=#0050ef;fontColor=#ffffff;strokeColor=#001DBC;" vertex="1" parent="LD-EiIfS64pIhnvLD3iC-61">
          <mxGeometry x="25" width="40" height="60" as="geometry" />
        </mxCell>
        <mxCell id="LD-EiIfS64pIhnvLD3iC-60" value="&lt;b&gt;Subscriber B&lt;/b&gt;" style="text;html=1;align=center;verticalAlign=middle;resizable=0;points=[];autosize=1;strokeColor=none;fillColor=none;" vertex="1" parent="LD-EiIfS64pIhnvLD3iC-61">
          <mxGeometry x="-5" y="68" width="100" height="30" as="geometry" />
        </mxCell>
        <mxCell id="LD-EiIfS64pIhnvLD3iC-62" value="" style="endArrow=none;dashed=1;html=1;rounded=0;exitX=0.5;exitY=0;exitDx=0;exitDy=0;entryX=1;entryY=0.5;entryDx=0;entryDy=0;strokeWidth=2;fillColor=#008a00;strokeColor=#005700;" edge="1" parent="1" source="LD-EiIfS64pIhnvLD3iC-50" target="LD-EiIfS64pIhnvLD3iC-44">
          <mxGeometry width="50" height="50" relative="1" as="geometry">
            <mxPoint x="390" y="240" as="sourcePoint" />
            <mxPoint x="440" y="190" as="targetPoint" />
            <Array as="points">
              <mxPoint x="650" y="160" />
            </Array>
          </mxGeometry>
        </mxCell>
        <mxCell id="LD-EiIfS64pIhnvLD3iC-63" value="&lt;b&gt;Retrieve subscriber information&lt;/b&gt;" style="edgeLabel;html=1;align=center;verticalAlign=middle;resizable=0;points=[];" vertex="1" connectable="0" parent="LD-EiIfS64pIhnvLD3iC-62">
          <mxGeometry x="0.1605" y="-3" relative="1" as="geometry">
            <mxPoint as="offset" />
          </mxGeometry>
        </mxCell>
        <mxCell id="LD-EiIfS64pIhnvLD3iC-64" value="" style="endArrow=none;dashed=1;html=1;rounded=0;exitX=1;exitY=0.5;exitDx=0;exitDy=0;entryX=0;entryY=0.5;entryDx=0;entryDy=0;strokeWidth=2;fillColor=#008a00;strokeColor=#005700;" edge="1" parent="1" source="LD-EiIfS64pIhnvLD3iC-48" target="LD-EiIfS64pIhnvLD3iC-50">
          <mxGeometry width="50" height="50" relative="1" as="geometry">
            <mxPoint x="390" y="240" as="sourcePoint" />
            <mxPoint x="440" y="190" as="targetPoint" />
          </mxGeometry>
        </mxCell>
        <mxCell id="LD-EiIfS64pIhnvLD3iC-67" value="" style="group" vertex="1" connectable="0" parent="1">
          <mxGeometry x="75" y="213" width="105" height="43" as="geometry" />
        </mxCell>
        <mxCell id="LD-EiIfS64pIhnvLD3iC-65" value="" style="endArrow=none;dashed=1;html=1;rounded=0;exitX=-0.071;exitY=-0.133;exitDx=0;exitDy=0;exitPerimeter=0;fillColor=#fa6800;strokeColor=#C73500;strokeWidth=2;" edge="1" parent="LD-EiIfS64pIhnvLD3iC-67" source="LD-EiIfS64pIhnvLD3iC-39">
          <mxGeometry width="50" height="50" relative="1" as="geometry">
            <mxPoint x="315" y="27" as="sourcePoint" />
            <mxPoint x="105" y="43" as="targetPoint" />
          </mxGeometry>
        </mxCell>
        <mxCell id="LD-EiIfS64pIhnvLD3iC-66" value="&lt;b&gt;Create Topic/&lt;br&gt;Subscribe&lt;/b&gt;" style="text;html=1;align=center;verticalAlign=middle;resizable=0;points=[];autosize=1;strokeColor=none;fillColor=none;" vertex="1" parent="LD-EiIfS64pIhnvLD3iC-67">
          <mxGeometry x="-5" width="100" height="40" as="geometry" />
        </mxCell>
        <mxCell id="LD-EiIfS64pIhnvLD3iC-68" value="" style="group" vertex="1" connectable="0" parent="1">
          <mxGeometry x="90" y="260" width="90" height="30" as="geometry" />
        </mxCell>
        <mxCell id="LD-EiIfS64pIhnvLD3iC-38" value="" style="endArrow=none;dashed=1;html=1;rounded=0;exitX=1;exitY=0.75;exitDx=0;exitDy=0;strokeWidth=2;fillColor=#60a917;strokeColor=#2D7600;" edge="1" parent="LD-EiIfS64pIhnvLD3iC-68" source="LD-EiIfS64pIhnvLD3iC-20">
          <mxGeometry width="50" height="50" relative="1" as="geometry">
            <mxPoint x="300" y="220" as="sourcePoint" />
            <mxPoint x="90" y="25" as="targetPoint" />
          </mxGeometry>
        </mxCell>
        <mxCell id="LD-EiIfS64pIhnvLD3iC-39" value="&lt;b&gt;Publish&lt;/b&gt;" style="text;html=1;align=center;verticalAlign=middle;resizable=0;points=[];autosize=1;strokeColor=none;fillColor=none;" vertex="1" parent="LD-EiIfS64pIhnvLD3iC-68">
          <mxGeometry width="70" height="30" as="geometry" />
        </mxCell>
        <mxCell id="LD-EiIfS64pIhnvLD3iC-69" value="" style="endArrow=none;dashed=1;html=1;rounded=0;exitX=0.95;exitY=0.05;exitDx=0;exitDy=0;exitPerimeter=0;strokeWidth=2;fillColor=#fa6800;strokeColor=#C73500;" edge="1" parent="1" source="LD-EiIfS64pIhnvLD3iC-35">
          <mxGeometry width="50" height="50" relative="1" as="geometry">
            <mxPoint x="390" y="240" as="sourcePoint" />
            <mxPoint x="400" y="260" as="targetPoint" />
          </mxGeometry>
        </mxCell>
        <mxCell id="LD-EiIfS64pIhnvLD3iC-70" value="" style="endArrow=none;dashed=1;html=1;rounded=0;exitX=0;exitY=0;exitDx=22.5;exitDy=0;exitPerimeter=0;entryX=0.25;entryY=1;entryDx=0;entryDy=0;fillColor=#fa6800;strokeColor=#C73500;strokeWidth=2;" edge="1" parent="1" source="LD-EiIfS64pIhnvLD3iC-41" target="LD-EiIfS64pIhnvLD3iC-44">
          <mxGeometry width="50" height="50" relative="1" as="geometry">
            <mxPoint x="390" y="240" as="sourcePoint" />
            <mxPoint x="440" y="190" as="targetPoint" />
          </mxGeometry>
        </mxCell>
        <mxCell id="LD-EiIfS64pIhnvLD3iC-71" value="" style="endArrow=none;dashed=1;html=1;rounded=0;exitX=0.25;exitY=0;exitDx=0;exitDy=0;entryX=0.25;entryY=1;entryDx=0;entryDy=0;entryPerimeter=0;strokeWidth=2;fillColor=#fa6800;strokeColor=#C73500;" edge="1" parent="1" source="LD-EiIfS64pIhnvLD3iC-44" target="LD-EiIfS64pIhnvLD3iC-45">
          <mxGeometry width="50" height="50" relative="1" as="geometry">
            <mxPoint x="390" y="240" as="sourcePoint" />
            <mxPoint x="440" y="190" as="targetPoint" />
          </mxGeometry>
        </mxCell>
        <mxCell id="LD-EiIfS64pIhnvLD3iC-106" value="" style="group" vertex="1" connectable="0" parent="1">
          <mxGeometry x="30" y="510" width="710" height="715" as="geometry" />
        </mxCell>
        <mxCell id="LD-EiIfS64pIhnvLD3iC-105" value="&lt;b&gt;FrontEnd Service Caching&amp;nbsp;&lt;/b&gt;" style="shape=ext;double=1;rounded=1;whiteSpace=wrap;html=1;" vertex="1" parent="LD-EiIfS64pIhnvLD3iC-106">
          <mxGeometry width="710" height="715" as="geometry" />
        </mxCell>
        <mxCell id="LD-EiIfS64pIhnvLD3iC-72" value="&lt;b&gt;FrontEnd Host&lt;/b&gt;" style="rounded=1;whiteSpace=wrap;html=1;fillColor=#d5e8d4;strokeColor=#82b366;" vertex="1" parent="LD-EiIfS64pIhnvLD3iC-106">
          <mxGeometry x="41" y="160" width="100" height="80" as="geometry" />
        </mxCell>
        <mxCell id="LD-EiIfS64pIhnvLD3iC-73" value="&lt;b&gt;Configuration Serivce (e.g. ZooKeeper)&lt;/b&gt;" style="rounded=1;whiteSpace=wrap;html=1;fillColor=#e1d5e7;strokeColor=#9673a6;" vertex="1" parent="LD-EiIfS64pIhnvLD3iC-106">
          <mxGeometry x="181" y="60" width="140" height="60" as="geometry" />
        </mxCell>
        <mxCell id="LD-EiIfS64pIhnvLD3iC-74" value="A-G" style="rounded=1;whiteSpace=wrap;html=1;fillColor=#dae8fc;strokeColor=#6c8ebf;" vertex="1" parent="LD-EiIfS64pIhnvLD3iC-106">
          <mxGeometry x="381" y="160" width="50" height="50" as="geometry" />
        </mxCell>
        <mxCell id="LD-EiIfS64pIhnvLD3iC-75" value="H-N" style="rounded=1;whiteSpace=wrap;html=1;fillColor=#dae8fc;strokeColor=#6c8ebf;" vertex="1" parent="LD-EiIfS64pIhnvLD3iC-106">
          <mxGeometry x="471" y="90" width="50" height="50" as="geometry" />
        </mxCell>
        <mxCell id="LD-EiIfS64pIhnvLD3iC-76" value="O-T" style="rounded=1;whiteSpace=wrap;html=1;fillColor=#dae8fc;strokeColor=#6c8ebf;" vertex="1" parent="LD-EiIfS64pIhnvLD3iC-106">
          <mxGeometry x="561" y="160" width="50" height="50" as="geometry" />
        </mxCell>
        <mxCell id="LD-EiIfS64pIhnvLD3iC-77" value="U-Z" style="rounded=1;whiteSpace=wrap;html=1;fillColor=#dae8fc;strokeColor=#6c8ebf;" vertex="1" parent="LD-EiIfS64pIhnvLD3iC-106">
          <mxGeometry x="471" y="230" width="50" height="50" as="geometry" />
        </mxCell>
        <mxCell id="LD-EiIfS64pIhnvLD3iC-78" value="" style="endArrow=none;dashed=1;html=1;dashPattern=1 3;strokeWidth=2;rounded=0;exitX=0.5;exitY=0;exitDx=0;exitDy=0;entryX=0;entryY=0.5;entryDx=0;entryDy=0;fillColor=#008a00;strokeColor=#005700;" edge="1" parent="LD-EiIfS64pIhnvLD3iC-106" source="LD-EiIfS64pIhnvLD3iC-72" target="LD-EiIfS64pIhnvLD3iC-73">
          <mxGeometry width="50" height="50" relative="1" as="geometry">
            <mxPoint x="461" y="470" as="sourcePoint" />
            <mxPoint x="511" y="420" as="targetPoint" />
            <Array as="points">
              <mxPoint x="111" y="110" />
            </Array>
          </mxGeometry>
        </mxCell>
        <mxCell id="LD-EiIfS64pIhnvLD3iC-79" value="" style="endArrow=none;dashed=1;html=1;rounded=0;exitX=1;exitY=0.5;exitDx=0;exitDy=0;entryX=0;entryY=0.5;entryDx=0;entryDy=0;fillColor=#6a00ff;strokeColor=#3700CC;" edge="1" parent="LD-EiIfS64pIhnvLD3iC-106" source="LD-EiIfS64pIhnvLD3iC-73" target="LD-EiIfS64pIhnvLD3iC-75">
          <mxGeometry width="50" height="50" relative="1" as="geometry">
            <mxPoint x="461" y="470" as="sourcePoint" />
            <mxPoint x="511" y="420" as="targetPoint" />
          </mxGeometry>
        </mxCell>
        <mxCell id="LD-EiIfS64pIhnvLD3iC-80" value="" style="endArrow=none;dashed=1;html=1;rounded=0;entryX=0;entryY=0.5;entryDx=0;entryDy=0;fillColor=#6a00ff;strokeColor=#3700CC;" edge="1" parent="LD-EiIfS64pIhnvLD3iC-106" target="LD-EiIfS64pIhnvLD3iC-74">
          <mxGeometry width="50" height="50" relative="1" as="geometry">
            <mxPoint x="321" y="90" as="sourcePoint" />
            <mxPoint x="481" y="125" as="targetPoint" />
          </mxGeometry>
        </mxCell>
        <mxCell id="LD-EiIfS64pIhnvLD3iC-81" value="" style="endArrow=none;dashed=1;html=1;rounded=0;exitX=1;exitY=0.5;exitDx=0;exitDy=0;entryX=0;entryY=0.5;entryDx=0;entryDy=0;fillColor=#6a00ff;strokeColor=#3700CC;" edge="1" parent="LD-EiIfS64pIhnvLD3iC-106" source="LD-EiIfS64pIhnvLD3iC-73" target="LD-EiIfS64pIhnvLD3iC-76">
          <mxGeometry width="50" height="50" relative="1" as="geometry">
            <mxPoint x="341" y="110" as="sourcePoint" />
            <mxPoint x="491" y="135" as="targetPoint" />
          </mxGeometry>
        </mxCell>
        <mxCell id="LD-EiIfS64pIhnvLD3iC-82" value="" style="endArrow=none;dashed=1;html=1;rounded=0;exitX=1;exitY=0.5;exitDx=0;exitDy=0;entryX=0.5;entryY=0;entryDx=0;entryDy=0;fillColor=#6a00ff;strokeColor=#3700CC;" edge="1" parent="LD-EiIfS64pIhnvLD3iC-106" source="LD-EiIfS64pIhnvLD3iC-73" target="LD-EiIfS64pIhnvLD3iC-77">
          <mxGeometry width="50" height="50" relative="1" as="geometry">
            <mxPoint x="351" y="120" as="sourcePoint" />
            <mxPoint x="501" y="145" as="targetPoint" />
          </mxGeometry>
        </mxCell>
        <mxCell id="LD-EiIfS64pIhnvLD3iC-83" value="" style="endArrow=none;html=1;rounded=0;exitX=0.5;exitY=0;exitDx=0;exitDy=0;entryX=0;entryY=0.5;entryDx=0;entryDy=0;fillColor=#1ba1e2;strokeColor=#006EAF;" edge="1" parent="LD-EiIfS64pIhnvLD3iC-106" source="LD-EiIfS64pIhnvLD3iC-74" target="LD-EiIfS64pIhnvLD3iC-75">
          <mxGeometry width="50" height="50" relative="1" as="geometry">
            <mxPoint x="461" y="470" as="sourcePoint" />
            <mxPoint x="511" y="420" as="targetPoint" />
          </mxGeometry>
        </mxCell>
        <mxCell id="LD-EiIfS64pIhnvLD3iC-84" value="" style="endArrow=none;html=1;rounded=0;exitX=1;exitY=0.5;exitDx=0;exitDy=0;entryX=0.5;entryY=0;entryDx=0;entryDy=0;fillColor=#1ba1e2;strokeColor=#006EAF;" edge="1" parent="LD-EiIfS64pIhnvLD3iC-106" source="LD-EiIfS64pIhnvLD3iC-75" target="LD-EiIfS64pIhnvLD3iC-76">
          <mxGeometry width="50" height="50" relative="1" as="geometry">
            <mxPoint x="461" y="470" as="sourcePoint" />
            <mxPoint x="511" y="420" as="targetPoint" />
          </mxGeometry>
        </mxCell>
        <mxCell id="LD-EiIfS64pIhnvLD3iC-85" value="" style="endArrow=none;html=1;rounded=0;exitX=1;exitY=0.5;exitDx=0;exitDy=0;entryX=0.5;entryY=1;entryDx=0;entryDy=0;fillColor=#1ba1e2;strokeColor=#006EAF;" edge="1" parent="LD-EiIfS64pIhnvLD3iC-106" source="LD-EiIfS64pIhnvLD3iC-77" target="LD-EiIfS64pIhnvLD3iC-76">
          <mxGeometry width="50" height="50" relative="1" as="geometry">
            <mxPoint x="531" y="125" as="sourcePoint" />
            <mxPoint x="596" y="170" as="targetPoint" />
          </mxGeometry>
        </mxCell>
        <mxCell id="LD-EiIfS64pIhnvLD3iC-86" value="" style="endArrow=none;html=1;rounded=0;exitX=0.5;exitY=1;exitDx=0;exitDy=0;entryX=0;entryY=0.5;entryDx=0;entryDy=0;fillColor=#1ba1e2;strokeColor=#006EAF;" edge="1" parent="LD-EiIfS64pIhnvLD3iC-106" source="LD-EiIfS64pIhnvLD3iC-74" target="LD-EiIfS64pIhnvLD3iC-77">
          <mxGeometry width="50" height="50" relative="1" as="geometry">
            <mxPoint x="541" y="135" as="sourcePoint" />
            <mxPoint x="606" y="180" as="targetPoint" />
          </mxGeometry>
        </mxCell>
        <mxCell id="LD-EiIfS64pIhnvLD3iC-87" value="" style="endArrow=none;dashed=1;html=1;dashPattern=1 3;strokeWidth=2;rounded=0;exitX=1;exitY=0.5;exitDx=0;exitDy=0;entryX=0;entryY=0.64;entryDx=0;entryDy=0;entryPerimeter=0;fillColor=#60a917;strokeColor=#2D7600;" edge="1" parent="LD-EiIfS64pIhnvLD3iC-106" source="LD-EiIfS64pIhnvLD3iC-72" target="LD-EiIfS64pIhnvLD3iC-74">
          <mxGeometry width="50" height="50" relative="1" as="geometry">
            <mxPoint x="461" y="470" as="sourcePoint" />
            <mxPoint x="511" y="420" as="targetPoint" />
          </mxGeometry>
        </mxCell>
        <mxCell id="LD-EiIfS64pIhnvLD3iC-88" value="&lt;b&gt;Central Registry&lt;/b&gt;" style="text;html=1;align=center;verticalAlign=middle;resizable=0;points=[];autosize=1;strokeColor=none;fillColor=none;" vertex="1" parent="LD-EiIfS64pIhnvLD3iC-106">
          <mxGeometry x="271" y="20" width="120" height="30" as="geometry" />
        </mxCell>
        <mxCell id="LD-EiIfS64pIhnvLD3iC-89" value="" style="rounded=1;whiteSpace=wrap;html=1;fillColor=#d5e8d4;strokeColor=#82b366;" vertex="1" parent="LD-EiIfS64pIhnvLD3iC-106">
          <mxGeometry x="51" y="530" width="120" height="80" as="geometry" />
        </mxCell>
        <mxCell id="LD-EiIfS64pIhnvLD3iC-90" value="" style="rounded=1;whiteSpace=wrap;html=1;fillColor=#dae8fc;strokeColor=#6c8ebf;" vertex="1" parent="LD-EiIfS64pIhnvLD3iC-106">
          <mxGeometry x="91" y="555" width="40" height="30" as="geometry" />
        </mxCell>
        <mxCell id="LD-EiIfS64pIhnvLD3iC-91" value="" style="group" vertex="1" connectable="0" parent="LD-EiIfS64pIhnvLD3iC-106">
          <mxGeometry x="391" y="475" width="230" height="190" as="geometry" />
        </mxCell>
        <mxCell id="LD-EiIfS64pIhnvLD3iC-92" value="H-N" style="rounded=1;whiteSpace=wrap;html=1;fillColor=#dae8fc;strokeColor=#6c8ebf;" vertex="1" parent="LD-EiIfS64pIhnvLD3iC-91">
          <mxGeometry x="90" width="50" height="50" as="geometry" />
        </mxCell>
        <mxCell id="LD-EiIfS64pIhnvLD3iC-93" value="O-T" style="rounded=1;whiteSpace=wrap;html=1;fillColor=#dae8fc;strokeColor=#6c8ebf;" vertex="1" parent="LD-EiIfS64pIhnvLD3iC-91">
          <mxGeometry x="180" y="70" width="50" height="50" as="geometry" />
        </mxCell>
        <mxCell id="LD-EiIfS64pIhnvLD3iC-94" value="U-Z" style="rounded=1;whiteSpace=wrap;html=1;fillColor=#dae8fc;strokeColor=#6c8ebf;" vertex="1" parent="LD-EiIfS64pIhnvLD3iC-91">
          <mxGeometry x="90" y="140" width="50" height="50" as="geometry" />
        </mxCell>
        <mxCell id="LD-EiIfS64pIhnvLD3iC-95" value="" style="endArrow=none;html=1;rounded=0;exitX=0.5;exitY=0;exitDx=0;exitDy=0;entryX=0;entryY=0.5;entryDx=0;entryDy=0;fillColor=#1ba1e2;strokeColor=#006EAF;" edge="1" parent="LD-EiIfS64pIhnvLD3iC-91" target="LD-EiIfS64pIhnvLD3iC-92">
          <mxGeometry width="50" height="50" relative="1" as="geometry">
            <mxPoint x="25" y="70" as="sourcePoint" />
            <mxPoint x="130" y="330" as="targetPoint" />
          </mxGeometry>
        </mxCell>
        <mxCell id="LD-EiIfS64pIhnvLD3iC-96" value="" style="endArrow=none;html=1;rounded=0;exitX=1;exitY=0.5;exitDx=0;exitDy=0;entryX=0.5;entryY=0;entryDx=0;entryDy=0;fillColor=#1ba1e2;strokeColor=#006EAF;" edge="1" parent="LD-EiIfS64pIhnvLD3iC-91" source="LD-EiIfS64pIhnvLD3iC-92" target="LD-EiIfS64pIhnvLD3iC-93">
          <mxGeometry width="50" height="50" relative="1" as="geometry">
            <mxPoint x="80" y="380" as="sourcePoint" />
            <mxPoint x="130" y="330" as="targetPoint" />
          </mxGeometry>
        </mxCell>
        <mxCell id="LD-EiIfS64pIhnvLD3iC-97" value="" style="endArrow=none;html=1;rounded=0;exitX=1;exitY=0.5;exitDx=0;exitDy=0;entryX=0.5;entryY=1;entryDx=0;entryDy=0;fillColor=#1ba1e2;strokeColor=#006EAF;" edge="1" parent="LD-EiIfS64pIhnvLD3iC-91" source="LD-EiIfS64pIhnvLD3iC-94" target="LD-EiIfS64pIhnvLD3iC-93">
          <mxGeometry width="50" height="50" relative="1" as="geometry">
            <mxPoint x="150" y="35" as="sourcePoint" />
            <mxPoint x="215" y="80" as="targetPoint" />
          </mxGeometry>
        </mxCell>
        <mxCell id="LD-EiIfS64pIhnvLD3iC-98" value="" style="endArrow=none;html=1;rounded=0;exitX=0.5;exitY=1;exitDx=0;exitDy=0;entryX=0;entryY=0.5;entryDx=0;entryDy=0;fillColor=#1ba1e2;strokeColor=#006EAF;" edge="1" parent="LD-EiIfS64pIhnvLD3iC-91" target="LD-EiIfS64pIhnvLD3iC-94">
          <mxGeometry width="50" height="50" relative="1" as="geometry">
            <mxPoint x="25" y="120" as="sourcePoint" />
            <mxPoint x="225" y="90" as="targetPoint" />
          </mxGeometry>
        </mxCell>
        <mxCell id="LD-EiIfS64pIhnvLD3iC-99" value="A-G" style="rounded=1;whiteSpace=wrap;html=1;fillColor=#dae8fc;strokeColor=#6c8ebf;" vertex="1" parent="LD-EiIfS64pIhnvLD3iC-91">
          <mxGeometry y="70" width="50" height="50" as="geometry" />
        </mxCell>
        <mxCell id="LD-EiIfS64pIhnvLD3iC-100" value="&lt;b&gt;FrontEnd Host&lt;/b&gt;" style="text;html=1;align=center;verticalAlign=middle;resizable=0;points=[];autosize=1;strokeColor=none;fillColor=none;" vertex="1" parent="LD-EiIfS64pIhnvLD3iC-106">
          <mxGeometry x="56" y="620" width="110" height="30" as="geometry" />
        </mxCell>
        <mxCell id="LD-EiIfS64pIhnvLD3iC-101" value="" style="endArrow=none;dashed=1;html=1;dashPattern=1 3;strokeWidth=2;rounded=0;exitX=1;exitY=0.5;exitDx=0;exitDy=0;entryX=0;entryY=0.5;entryDx=0;entryDy=0;fillColor=#60a917;strokeColor=#2D7600;" edge="1" parent="LD-EiIfS64pIhnvLD3iC-106" source="LD-EiIfS64pIhnvLD3iC-90" target="LD-EiIfS64pIhnvLD3iC-92">
          <mxGeometry width="50" height="50" relative="1" as="geometry">
            <mxPoint x="461" y="470" as="sourcePoint" />
            <mxPoint x="511" y="420" as="targetPoint" />
          </mxGeometry>
        </mxCell>
        <mxCell id="LD-EiIfS64pIhnvLD3iC-102" value="" style="endArrow=none;dashed=1;html=1;dashPattern=1 3;strokeWidth=2;rounded=0;exitX=1;exitY=0.5;exitDx=0;exitDy=0;entryX=0;entryY=0.5;entryDx=0;entryDy=0;fillColor=#60a917;strokeColor=#2D7600;" edge="1" parent="LD-EiIfS64pIhnvLD3iC-106" source="LD-EiIfS64pIhnvLD3iC-90" target="LD-EiIfS64pIhnvLD3iC-99">
          <mxGeometry width="50" height="50" relative="1" as="geometry">
            <mxPoint x="141" y="580" as="sourcePoint" />
            <mxPoint x="491" y="510" as="targetPoint" />
          </mxGeometry>
        </mxCell>
        <mxCell id="LD-EiIfS64pIhnvLD3iC-103" value="" style="endArrow=none;dashed=1;html=1;dashPattern=1 3;strokeWidth=2;rounded=0;exitX=1;exitY=0.5;exitDx=0;exitDy=0;entryX=0;entryY=0.5;entryDx=0;entryDy=0;fillColor=#60a917;strokeColor=#2D7600;" edge="1" parent="LD-EiIfS64pIhnvLD3iC-106" source="LD-EiIfS64pIhnvLD3iC-90" target="LD-EiIfS64pIhnvLD3iC-94">
          <mxGeometry width="50" height="50" relative="1" as="geometry">
            <mxPoint x="151" y="590" as="sourcePoint" />
            <mxPoint x="501" y="520" as="targetPoint" />
          </mxGeometry>
        </mxCell>
        <mxCell id="LD-EiIfS64pIhnvLD3iC-104" value="&lt;b&gt;Gossip Protocol&lt;/b&gt;&lt;br&gt;every FE knows all metadata hosts&amp;nbsp;" style="text;html=1;align=center;verticalAlign=middle;resizable=0;points=[];autosize=1;strokeColor=none;fillColor=none;" vertex="1" parent="LD-EiIfS64pIhnvLD3iC-106">
          <mxGeometry x="221" y="435" width="210" height="40" as="geometry" />
        </mxCell>
        <mxCell id="LD-EiIfS64pIhnvLD3iC-107" value="" style="shape=ext;double=1;rounded=1;whiteSpace=wrap;html=1;fontStyle=1" vertex="1" parent="1">
          <mxGeometry x="250" y="1390" width="910" height="340" as="geometry" />
        </mxCell>
        <mxCell id="LD-EiIfS64pIhnvLD3iC-108" value="&lt;b&gt;Temporary Storage&lt;/b&gt;" style="rounded=1;whiteSpace=wrap;html=1;fillColor=#f0a30a;fontColor=#000000;strokeColor=#BD7000;" vertex="1" parent="1">
          <mxGeometry x="90" y="1520" width="120" height="60" as="geometry" />
        </mxCell>
        <mxCell id="LD-EiIfS64pIhnvLD3iC-113" value="" style="edgeStyle=orthogonalEdgeStyle;rounded=0;orthogonalLoop=1;jettySize=auto;html=1;" edge="1" parent="1" source="LD-EiIfS64pIhnvLD3iC-109" target="LD-EiIfS64pIhnvLD3iC-110">
          <mxGeometry relative="1" as="geometry" />
        </mxCell>
        <mxCell id="LD-EiIfS64pIhnvLD3iC-109" value="&lt;b&gt;Message Retriever&lt;/b&gt;" style="rounded=1;whiteSpace=wrap;html=1;fillColor=#d5e8d4;strokeColor=#82b366;" vertex="1" parent="1">
          <mxGeometry x="305" y="1502.5" width="105" height="95" as="geometry" />
        </mxCell>
        <mxCell id="LD-EiIfS64pIhnvLD3iC-110" value="&lt;b&gt;Use Counting semaphore to restrict the number of message read threads&lt;/b&gt;" style="shape=document;whiteSpace=wrap;html=1;boundedLbl=1;fillColor=#fff2cc;strokeColor=#d6b656;rounded=1;" vertex="1" parent="1">
          <mxGeometry x="262.5" y="1650" width="190" height="140" as="geometry" />
        </mxCell>
        <mxCell id="LD-EiIfS64pIhnvLD3iC-115" value="&lt;b&gt;MS Client&lt;/b&gt;" style="rounded=1;whiteSpace=wrap;html=1;fillColor=#d5e8d4;strokeColor=#82b366;" vertex="1" parent="1">
          <mxGeometry x="470" y="1502.5" width="105" height="95" as="geometry" />
        </mxCell>
        <mxCell id="LD-EiIfS64pIhnvLD3iC-116" value="&lt;b&gt;Metadata Service&lt;/b&gt;" style="rounded=1;whiteSpace=wrap;html=1;fillColor=#dae8fc;strokeColor=#6c8ebf;" vertex="1" parent="1">
          <mxGeometry x="462.5" y="1250" width="120" height="100" as="geometry" />
        </mxCell>
        <mxCell id="LD-EiIfS64pIhnvLD3iC-118" value="" style="endArrow=none;dashed=1;html=1;dashPattern=1 3;strokeWidth=3;rounded=0;entryX=0.5;entryY=1;entryDx=0;entryDy=0;fillColor=#0050ef;strokeColor=#001DBC;" edge="1" parent="1" source="LD-EiIfS64pIhnvLD3iC-115" target="LD-EiIfS64pIhnvLD3iC-116">
          <mxGeometry width="50" height="50" relative="1" as="geometry">
            <mxPoint x="550" y="1390" as="sourcePoint" />
            <mxPoint x="600" y="1340" as="targetPoint" />
          </mxGeometry>
        </mxCell>
        <mxCell id="LD-EiIfS64pIhnvLD3iC-119" value="" style="endArrow=none;dashed=1;html=1;dashPattern=1 3;strokeWidth=3;rounded=0;exitX=1;exitY=0.5;exitDx=0;exitDy=0;entryX=0;entryY=0.5;entryDx=0;entryDy=0;fillColor=#0050ef;strokeColor=#001DBC;" edge="1" parent="1" source="LD-EiIfS64pIhnvLD3iC-108" target="LD-EiIfS64pIhnvLD3iC-109">
          <mxGeometry width="50" height="50" relative="1" as="geometry">
            <mxPoint x="550" y="1390" as="sourcePoint" />
            <mxPoint x="600" y="1340" as="targetPoint" />
          </mxGeometry>
        </mxCell>
        <mxCell id="LD-EiIfS64pIhnvLD3iC-120" value="" style="endArrow=none;dashed=1;html=1;dashPattern=1 3;strokeWidth=3;rounded=0;exitX=1;exitY=0.5;exitDx=0;exitDy=0;entryX=0;entryY=0.5;entryDx=0;entryDy=0;fillColor=#0050ef;strokeColor=#001DBC;" edge="1" parent="1" source="LD-EiIfS64pIhnvLD3iC-109" target="LD-EiIfS64pIhnvLD3iC-115">
          <mxGeometry width="50" height="50" relative="1" as="geometry">
            <mxPoint x="550" y="1390" as="sourcePoint" />
            <mxPoint x="600" y="1340" as="targetPoint" />
          </mxGeometry>
        </mxCell>
        <mxCell id="LD-EiIfS64pIhnvLD3iC-121" style="edgeStyle=orthogonalEdgeStyle;rounded=0;orthogonalLoop=1;jettySize=auto;html=1;exitX=0.5;exitY=1;exitDx=0;exitDy=0;" edge="1" parent="1" source="LD-EiIfS64pIhnvLD3iC-107" target="LD-EiIfS64pIhnvLD3iC-107">
          <mxGeometry relative="1" as="geometry" />
        </mxCell>
        <mxCell id="LD-EiIfS64pIhnvLD3iC-132" value="" style="edgeStyle=orthogonalEdgeStyle;rounded=0;orthogonalLoop=1;jettySize=auto;html=1;" edge="1" parent="1" source="LD-EiIfS64pIhnvLD3iC-123" target="LD-EiIfS64pIhnvLD3iC-131">
          <mxGeometry relative="1" as="geometry" />
        </mxCell>
        <mxCell id="LD-EiIfS64pIhnvLD3iC-123" value="&lt;b&gt;Task Creator&lt;/b&gt;" style="rounded=1;whiteSpace=wrap;html=1;fillColor=#d0cee2;strokeColor=#56517e;" vertex="1" parent="1">
          <mxGeometry x="630" y="1500" width="110" height="97.5" as="geometry" />
        </mxCell>
        <mxCell id="LD-EiIfS64pIhnvLD3iC-125" value="&lt;b&gt;Task Executor&lt;/b&gt;" style="rounded=1;whiteSpace=wrap;html=1;fillColor=#d0cee2;strokeColor=#56517e;" vertex="1" parent="1">
          <mxGeometry x="800" y="1502.5" width="110" height="97.5" as="geometry" />
        </mxCell>
        <mxCell id="LD-EiIfS64pIhnvLD3iC-126" value="" style="endArrow=none;dashed=1;html=1;dashPattern=1 3;strokeWidth=3;rounded=0;exitX=1;exitY=0.5;exitDx=0;exitDy=0;entryX=0;entryY=0.5;entryDx=0;entryDy=0;fillColor=#0050ef;strokeColor=#001DBC;" edge="1" parent="1">
          <mxGeometry width="50" height="50" relative="1" as="geometry">
            <mxPoint x="575" y="1549.5" as="sourcePoint" />
            <mxPoint x="635" y="1549.5" as="targetPoint" />
          </mxGeometry>
        </mxCell>
        <mxCell id="LD-EiIfS64pIhnvLD3iC-127" value="" style="endArrow=none;dashed=1;html=1;dashPattern=1 3;strokeWidth=3;rounded=0;exitX=1;exitY=0.5;exitDx=0;exitDy=0;entryX=0;entryY=0.5;entryDx=0;entryDy=0;fillColor=#0050ef;strokeColor=#001DBC;" edge="1" parent="1">
          <mxGeometry width="50" height="50" relative="1" as="geometry">
            <mxPoint x="740" y="1549.5" as="sourcePoint" />
            <mxPoint x="800" y="1549.5" as="targetPoint" />
          </mxGeometry>
        </mxCell>
        <mxCell id="LD-EiIfS64pIhnvLD3iC-130" value="&lt;b&gt;# of sender threads &lt;br&gt;to execute the tasks&lt;/b&gt;" style="text;html=1;align=center;verticalAlign=middle;resizable=0;points=[];autosize=1;strokeColor=none;fillColor=none;" vertex="1" parent="1">
          <mxGeometry x="785" y="1605" width="140" height="40" as="geometry" />
        </mxCell>
        <mxCell id="LD-EiIfS64pIhnvLD3iC-131" value="&lt;b&gt;Use Counting semaphore to keep track the available sender threads&lt;/b&gt;" style="shape=document;whiteSpace=wrap;html=1;boundedLbl=1;fillColor=#fff2cc;strokeColor=#d6b656;rounded=1;" vertex="1" parent="1">
          <mxGeometry x="590" y="1650" width="190" height="140" as="geometry" />
        </mxCell>
        <mxCell id="LD-EiIfS64pIhnvLD3iC-133" value="Task" style="strokeWidth=2;html=1;shape=mxgraph.flowchart.start_2;whiteSpace=wrap;fillColor=#d0cee2;strokeColor=#56517e;" vertex="1" parent="1">
          <mxGeometry x="980" y="1430" width="50" height="50" as="geometry" />
        </mxCell>
        <mxCell id="LD-EiIfS64pIhnvLD3iC-134" value="Task" style="strokeWidth=2;html=1;shape=mxgraph.flowchart.start_2;whiteSpace=wrap;fillColor=#d0cee2;strokeColor=#56517e;" vertex="1" parent="1">
          <mxGeometry x="980" y="1490" width="50" height="50" as="geometry" />
        </mxCell>
        <mxCell id="LD-EiIfS64pIhnvLD3iC-135" value="Task" style="strokeWidth=2;html=1;shape=mxgraph.flowchart.start_2;whiteSpace=wrap;fillColor=#d0cee2;strokeColor=#56517e;" vertex="1" parent="1">
          <mxGeometry x="980" y="1550" width="50" height="50" as="geometry" />
        </mxCell>
        <mxCell id="LD-EiIfS64pIhnvLD3iC-136" value="Task" style="strokeWidth=2;html=1;shape=mxgraph.flowchart.start_2;whiteSpace=wrap;fillColor=#d0cee2;strokeColor=#56517e;" vertex="1" parent="1">
          <mxGeometry x="980" y="1610" width="50" height="50" as="geometry" />
        </mxCell>
        <mxCell id="LD-EiIfS64pIhnvLD3iC-137" value="" style="endArrow=none;dashed=1;html=1;dashPattern=1 3;strokeWidth=3;rounded=0;exitX=1;exitY=0.5;exitDx=0;exitDy=0;entryX=0.02;entryY=0.64;entryDx=0;entryDy=0;fillColor=#0050ef;strokeColor=#001DBC;entryPerimeter=0;" edge="1" parent="1" source="LD-EiIfS64pIhnvLD3iC-125" target="LD-EiIfS64pIhnvLD3iC-133">
          <mxGeometry width="50" height="50" relative="1" as="geometry">
            <mxPoint x="750" y="1559.5" as="sourcePoint" />
            <mxPoint x="810" y="1559.5" as="targetPoint" />
          </mxGeometry>
        </mxCell>
        <mxCell id="LD-EiIfS64pIhnvLD3iC-146" value="" style="group" vertex="1" connectable="0" parent="1">
          <mxGeometry x="1020" y="1430" width="140" height="30" as="geometry" />
        </mxCell>
        <mxCell id="LD-EiIfS64pIhnvLD3iC-140" value="&lt;b&gt;Call HTTP Endpoints&lt;/b&gt;" style="text;html=1;align=center;verticalAlign=middle;resizable=0;points=[];autosize=1;strokeColor=none;fillColor=none;" vertex="1" parent="LD-EiIfS64pIhnvLD3iC-146">
          <mxGeometry width="140" height="30" as="geometry" />
        </mxCell>
        <mxCell id="LD-EiIfS64pIhnvLD3iC-141" value="" style="endArrow=none;dashed=1;html=1;dashPattern=1 3;strokeWidth=3;rounded=0;exitX=1;exitY=0.5;exitDx=0;exitDy=0;exitPerimeter=0;fillColor=#0050ef;strokeColor=#001DBC;entryX=1;entryY=0.194;entryDx=0;entryDy=0;entryPerimeter=0;" edge="1" parent="LD-EiIfS64pIhnvLD3iC-146" source="LD-EiIfS64pIhnvLD3iC-133" target="LD-EiIfS64pIhnvLD3iC-107">
          <mxGeometry width="50" height="50" relative="1" as="geometry">
            <mxPoint x="-470" y="180" as="sourcePoint" />
            <mxPoint x="140" y="30" as="targetPoint" />
            <Array as="points" />
          </mxGeometry>
        </mxCell>
        <mxCell id="LD-EiIfS64pIhnvLD3iC-147" value="" style="group" vertex="1" connectable="0" parent="1">
          <mxGeometry x="1030" y="1490" width="130" height="30" as="geometry" />
        </mxCell>
        <mxCell id="LD-EiIfS64pIhnvLD3iC-142" value="" style="endArrow=none;dashed=1;html=1;dashPattern=1 3;strokeWidth=3;rounded=0;fillColor=#0050ef;strokeColor=#001DBC;" edge="1" parent="LD-EiIfS64pIhnvLD3iC-147">
          <mxGeometry width="50" height="50" relative="1" as="geometry">
            <mxPoint y="30" as="sourcePoint" />
            <mxPoint x="130" y="30" as="targetPoint" />
          </mxGeometry>
        </mxCell>
        <mxCell id="LD-EiIfS64pIhnvLD3iC-143" value="&lt;b&gt;Send Emails&lt;/b&gt;" style="text;html=1;align=center;verticalAlign=middle;resizable=0;points=[];autosize=1;strokeColor=none;fillColor=none;" vertex="1" parent="LD-EiIfS64pIhnvLD3iC-147">
          <mxGeometry x="25" width="90" height="30" as="geometry" />
        </mxCell>
        <mxCell id="LD-EiIfS64pIhnvLD3iC-149" value="" style="group" vertex="1" connectable="0" parent="1">
          <mxGeometry x="1033.5" y="1545" width="126.5" height="30" as="geometry" />
        </mxCell>
        <mxCell id="LD-EiIfS64pIhnvLD3iC-144" value="" style="endArrow=none;dashed=1;html=1;dashPattern=1 3;strokeWidth=3;rounded=0;fillColor=#0050ef;strokeColor=#001DBC;" edge="1" parent="LD-EiIfS64pIhnvLD3iC-149">
          <mxGeometry width="50" height="50" relative="1" as="geometry">
            <mxPoint y="29.5" as="sourcePoint" />
            <mxPoint x="126.5" y="30" as="targetPoint" />
          </mxGeometry>
        </mxCell>
        <mxCell id="LD-EiIfS64pIhnvLD3iC-148" value="&lt;b&gt;Send SMS&lt;/b&gt;" style="text;html=1;align=center;verticalAlign=middle;resizable=0;points=[];autosize=1;strokeColor=none;fillColor=none;" vertex="1" parent="LD-EiIfS64pIhnvLD3iC-149">
          <mxGeometry x="21.5" width="80" height="30" as="geometry" />
        </mxCell>
        <mxCell id="LD-EiIfS64pIhnvLD3iC-151" value="" style="group" vertex="1" connectable="0" parent="1">
          <mxGeometry x="1030" y="1610" width="130" height="30" as="geometry" />
        </mxCell>
        <mxCell id="LD-EiIfS64pIhnvLD3iC-145" value="" style="endArrow=none;dashed=1;html=1;dashPattern=1 3;strokeWidth=3;rounded=0;fillColor=#0050ef;strokeColor=#001DBC;" edge="1" parent="LD-EiIfS64pIhnvLD3iC-151">
          <mxGeometry width="50" height="50" relative="1" as="geometry">
            <mxPoint y="24.5" as="sourcePoint" />
            <mxPoint x="130" y="25" as="targetPoint" />
          </mxGeometry>
        </mxCell>
        <mxCell id="LD-EiIfS64pIhnvLD3iC-150" value="&lt;b&gt;Mobile Push&lt;/b&gt;" style="text;html=1;align=center;verticalAlign=middle;resizable=0;points=[];autosize=1;strokeColor=none;fillColor=none;" vertex="1" parent="LD-EiIfS64pIhnvLD3iC-151">
          <mxGeometry x="20" width="90" height="30" as="geometry" />
        </mxCell>
        <mxCell id="LD-EiIfS64pIhnvLD3iC-152" value="" style="endArrow=none;dashed=1;html=1;dashPattern=1 3;strokeWidth=3;rounded=0;exitX=1;exitY=0.5;exitDx=0;exitDy=0;entryX=0;entryY=0.5;entryDx=0;entryDy=0;fillColor=#0050ef;strokeColor=#001DBC;entryPerimeter=0;" edge="1" parent="1" source="LD-EiIfS64pIhnvLD3iC-125" target="LD-EiIfS64pIhnvLD3iC-134">
          <mxGeometry width="50" height="50" relative="1" as="geometry">
            <mxPoint x="920" y="1561" as="sourcePoint" />
            <mxPoint x="991" y="1472" as="targetPoint" />
          </mxGeometry>
        </mxCell>
        <mxCell id="LD-EiIfS64pIhnvLD3iC-153" value="" style="endArrow=none;dashed=1;html=1;dashPattern=1 3;strokeWidth=3;rounded=0;entryX=0;entryY=0.5;entryDx=0;entryDy=0;fillColor=#0050ef;strokeColor=#001DBC;entryPerimeter=0;" edge="1" parent="1" target="LD-EiIfS64pIhnvLD3iC-135">
          <mxGeometry width="50" height="50" relative="1" as="geometry">
            <mxPoint x="910" y="1550" as="sourcePoint" />
            <mxPoint x="1001" y="1482" as="targetPoint" />
          </mxGeometry>
        </mxCell>
        <mxCell id="LD-EiIfS64pIhnvLD3iC-154" value="" style="endArrow=none;dashed=1;html=1;dashPattern=1 3;strokeWidth=3;rounded=0;entryX=0;entryY=0.5;entryDx=0;entryDy=0;fillColor=#0050ef;strokeColor=#001DBC;entryPerimeter=0;" edge="1" parent="1" target="LD-EiIfS64pIhnvLD3iC-136">
          <mxGeometry width="50" height="50" relative="1" as="geometry">
            <mxPoint x="910" y="1550" as="sourcePoint" />
            <mxPoint x="1011" y="1492" as="targetPoint" />
          </mxGeometry>
        </mxCell>
      </root>
    </mxGraphModel>
  </diagram>
</mxfile>
